<?xml version="1.0" standalone="no"?>
<!DOCTYPE svg PUBLIC "-//W3C//DTD SVG 20010904//EN"
 "http://www.w3.org/TR/2001/REC-SVG-20010904/DTD/svg10.dtd">
<svg version="1.0" xmlns="http://www.w3.org/2000/svg"
 width="1236.000000pt" height="516.000000pt" viewBox="0 0 1236.000000 516.000000"
 preserveAspectRatio="xMidYMid meet">

<g transform="translate(0.000000,516.000000) scale(0.100000,-0.100000)"
fill="#000000" stroke="none">
<path d="M10 3030 l0 -2120 1455 0 1455 0 0 70 0 70 -1385 0 -1385 0 0 1980 0
1980 6030 0 6030 0 0 -1980 0 -1980 -1385 0 -1385 0 0 -70 0 -70 1455 0 1455
0 0 2120 0 2120 -6170 0 -6170 0 0 -2120z" fill="#820040" />
<path d="M1810 3110 l0 -1032 378 5 c393 6 447 11 622 58 41 11 127 45 190 76
99 48 126 66 193 133 121 122 170 247 171 435 0 171 -42 273 -161 385 -164
157 -399 217 -678 174 -33 -5 -19 6 89 65 169 94 224 131 279 190 73 77 92
122 92 216 0 69 -4 86 -27 127 -51 86 -136 136 -292 170 -79 18 -140 21 -473
25 l-383 5 0 -1032z m711 962 c75 -30 132 -81 166 -150 24 -49 28 -68 28 -148
0 -85 -3 -96 -38 -167 -45 -91 -99 -143 -269 -259 -138 -94 -249 -193 -290
-257 l-28 -45 0 528 0 528 188 -4 c162 -4 194 -7 243 -26z m232 -789 c253 -74
394 -302 358 -577 -27 -201 -121 -349 -284 -450 -151 -93 -300 -126 -563 -126
l-174 0 0 423 0 423 36 60 c87 145 214 236 367 264 65 11 193 3 260 -17z" fill="#D10073"/>
<path d="M3810 3110 l0 -1030 496 0 c468 0 496 -1 491 -17 -3 -10 -24 -62 -46
-115 -22 -54 -78 -207 -125 -340 -55 -158 -109 -292 -155 -383 -39 -77 -96
-202 -127 -278 -44 -107 -62 -138 -78 -142 -12 -3 -75 -16 -141 -31 -363 -78
-585 -207 -680 -394 -10 -19 -20 -64 -22 -100 -4 -55 -1 -72 19 -110 46 -86
147 -138 313 -161 356 -50 928 161 1395 514 106 80 301 264 355 336 l36 47
132 18 c200 27 416 73 550 117 66 21 121 38 123 36 1 -1 -6 -27 -16 -57 -21
-61 -26 -141 -9 -171 39 -74 151 -28 424 175 l90 66 7 -25 c4 -15 12 -33 19
-41 15 -19 82 -18 119 1 17 9 30 13 30 10 0 -3 -20 -53 -46 -112 -76 -179 -90
-271 -43 -281 30 -6 113 64 280 235 94 97 169 168 165 156 -5 -17 -36 -168
-36 -178 0 -2 7 -11 16 -19 21 -22 73 -21 80 2 23 72 132 279 159 302 13 11
15 3 15 -68 0 -62 4 -85 18 -102 33 -41 60 -22 127 90 58 97 109 160 120 148
4 -3 -4 -48 -16 -99 -30 -123 -31 -199 -4 -229 44 -49 151 -7 279 111 48 44
57 49 51 29 -16 -49 -25 -96 -25 -132 -1 -128 161 -71 404 142 l60 52 28 -91
29 -92 -51 -56 c-42 -46 -51 -61 -48 -87 3 -29 6 -31 48 -34 84 -5 155 69 147
153 l-4 40 144 105 c131 96 154 118 127 127 -5 1 -69 -42 -143 -97 -74 -55
-137 -97 -142 -95 -10 7 -39 135 -39 174 0 45 44 91 86 91 19 0 43 -6 54 -12
32 -20 47 4 19 31 -27 25 -111 29 -162 7 -35 -14 -87 -69 -87 -91 0 -29 -223
-216 -323 -271 -99 -54 -101 -5 -7 197 75 163 79 175 51 184 -37 12 -57 -4
-91 -73 -26 -53 -52 -84 -124 -150 -136 -124 -205 -165 -219 -128 -3 8 5 61
18 118 36 159 41 222 21 253 -13 20 -22 24 -39 19 -35 -10 -93 -72 -155 -164
l-57 -85 -7 70 c-16 158 -96 127 -210 -80 -15 -27 -28 -45 -28 -39 0 19 59
187 75 210 20 31 19 41 -4 49 -37 12 -71 -13 -97 -70 -20 -42 -69 -101 -202
-240 -98 -102 -194 -199 -215 -216 -83 -69 -64 10 53 216 37 66 75 138 84 159
18 42 21 86 7 86 -5 0 -40 -25 -78 -56 -37 -31 -82 -63 -100 -72 -71 -34 -83
19 -27 113 55 89 133 253 150 313 47 160 -69 122 -153 -50 -32 -65 -76 -196
-88 -260 -4 -20 -17 -45 -28 -56 -53 -48 -336 -244 -375 -259 -40 -15 -44 -15
-60 0 -14 15 -15 23 -4 64 7 27 28 80 47 119 32 65 37 72 77 83 93 27 168 89
168 137 0 17 -7 25 -26 30 -72 18 -168 -30 -234 -119 -39 -53 -104 -85 -266
-132 -158 -46 -555 -117 -570 -103 -3 3 16 38 41 77 108 166 207 410 241 588
23 123 16 336 -13 411 l-21 52 499 0 c492 0 499 0 499 20 0 20 -7 20 -510 20
l-510 0 0 1010 0 1010 -135 0 -135 0 0 -943 0 -944 -77 -15 c-112 -23 -181
-51 -282 -118 -120 -79 -234 -181 -328 -294 -43 -52 -80 -93 -81 -91 -2 2 7
35 19 74 18 57 25 68 36 59 25 -20 32 -1 69 190 4 21 9 22 104 22 93 0 100 1
100 20 0 19 -7 20 -101 20 -55 0 -110 5 -121 11 -14 8 -23 8 -31 0 -8 -8 -129
-11 -389 -11 l-378 0 0 495 0 495 380 0 c373 0 380 0 380 20 0 20 -7 20 -380
20 l-380 0 0 475 0 475 510 0 c503 0 510 0 510 20 0 20 -7 20 -645 20 l-645 0
0 -1030z m1730 -971 l0 -59 99 0 99 0 20 -48 c32 -73 41 -127 42 -230 0 -228
-102 -526 -268 -778 l-60 -91 -64 -7 c-36 -3 -233 -22 -439 -41 -206 -19 -402
-37 -435 -41 l-61 -7 127 382 c144 429 137 415 313 611 196 218 410 358 567
372 56 5 60 1 60 -63z m1469 -749 c-55 -116 -78 -141 -39 -43 37 91 83 179 87
166 3 -7 -19 -62 -48 -123z m-369 -128 c0 -13 -31 -38 -77 -61 -51 -25 -60
-26 -42 -4 36 44 119 89 119 65z m-2239 -323 c-26 -78 -43 -115 -54 -117 -13
-3 -7 19 29 105 25 59 48 114 51 121 3 7 7 11 9 9 2 -2 -13 -55 -35 -118z
m1029 -58 c0 -18 -271 -270 -368 -341 -378 -278 -793 -459 -1127 -492 -92 -9
-126 -9 -203 5 -234 39 -323 158 -243 322 63 127 218 238 431 309 101 33 339
91 346 84 2 -2 -13 -53 -33 -113 -19 -61 -38 -140 -41 -177 -4 -65 -4 -68 18
-68 64 0 114 65 190 249 l55 136 95 13 c108 15 773 79 838 81 23 0 42 -3 42
-8z m3236 -76 c-18 -27 -56 -52 -56 -36 0 6 14 27 32 47 34 38 51 31 24 -11z
m-4350 -118 c-41 -112 -77 -199 -82 -194 -5 5 51 203 70 250 9 20 23 37 31 37
12 0 7 -20 -19 -93z" fill="#D10073"/>
<path d="M7240 3110 l0 -1030 645 0 c638 0 645 0 645 20 0 20 -7 20 -510 20
l-510 0 0 1010 0 1010 -135 0 -135 0 0 -1030z" fill="#D10073"/>
<path d="M9540 4135 c0 -2 11 -33 24 -69 l24 -64 -334 -953 c-184 -524 -334
-957 -334 -961 0 -5 10 -8 22 -6 18 3 36 46 136 331 l115 327 417 0 417 0 115
-327 114 -328 142 -3 c78 -1 142 1 142 5 0 5 -160 468 -357 1031 l-357 1022
-143 0 c-79 0 -143 -2 -143 -5z m270 -771 c107 -306 196 -563 198 -570 3 -12
-65 -14 -398 -14 -339 0 -401 2 -398 14 8 38 394 1126 398 1126 3 0 93 -250
200 -556z" fill="#D10073"/>
<path d="M8375 1415 c-28 -27 -34 -82 -11 -91 38 -15 96 59 76 96 -14 27 -36
25 -65 -5z" fill="#D10073"/>
</g>
</svg>
